Coordinates
version=1
nRows=32
nColumns=12
inDegrees=yes

Units are S.I. units (second, meters, Newtons, ...)
Angles are in degrees

endheader
time	SC_y	SC_z	SC_x	AC_y	AC_z	AC_x	GH_y	GH_z	GH_yy	EL_x	PS_y
       0.0              -50.18         -1.209          53.27          69.63        -0.3685          -13.7          21.07          86.81          45.34          85.26          36.91
     0.046              -50.17         -1.204          53.27          69.63          -0.37          -13.7          21.08          86.81          45.33          85.26          36.91
     0.092              -50.17         -1.198          53.27          69.63        -0.3716          -13.7          21.08          86.81          45.32          85.26          36.91
     0.138              -50.17         -1.192          53.26          69.62        -0.3733          -13.7          21.09          86.81          45.31          85.25           36.9
     0.184              -50.16         -1.186          53.26          69.62        -0.3751          -13.7           21.1          86.81           45.3          85.25           36.9
      0.23              -50.16          -1.18          53.25          69.62        -0.3771          -13.7          21.11           86.8          45.28          85.25           36.9
     0.276              -50.16         -1.173          53.25          69.62        -0.3791          -13.7          21.11           86.8          45.27          85.24           36.9
     0.322              -50.15         -1.165          53.24          69.62        -0.3814          -13.7          21.12           86.8          45.26          85.24          36.89
     0.368              -50.15         -1.157          53.23          69.62        -0.3837          -13.7          21.13           86.8          45.24          85.23          36.89
     0.414              -50.14         -1.148          53.23          69.62        -0.3863          -13.7          21.14           86.8          45.22          85.23          36.89
      0.46              -50.14         -1.139          53.22          69.62         -0.389          -13.7          21.15          86.79          45.21          85.22          36.88
     0.506              -50.13         -1.129          53.21          69.62        -0.3919          -13.7          21.16          86.79          45.19          85.21          36.88
     0.552              -50.12         -1.119           53.2          69.62        -0.3951          -13.7          21.18          86.79          45.17          85.21          36.87
     0.598              -50.12         -1.107           53.2          69.61        -0.3985          -13.7          21.19          86.79          45.14           85.2          36.87
     0.644              -50.11         -1.094          53.19          69.61        -0.4022          -13.7           21.2          86.78          45.12          85.19          36.86
      0.69               -50.1         -1.081          53.18          69.61        -0.4062          -13.7          21.22          86.78          45.09          85.18          36.86
     0.736              -50.09         -1.066          53.16          69.61        -0.4106          -13.7          21.24          86.78          45.07          85.17          36.85
     0.782              -50.09          -1.05          53.15          69.61        -0.4154          -13.7          21.26          86.77          45.03          85.16          36.84
     0.828              -50.08         -1.032          53.14          69.61        -0.4205          -13.7          21.28          86.77           45.0          85.15          36.84
     0.874              -50.06         -1.013          53.12           69.6        -0.4262          -13.7           21.3          86.76          44.96          85.14          36.83
      0.92              -50.05        -0.9918          53.11           69.6        -0.4325          -13.7          21.32          86.76          44.92          85.13          36.82
     0.966              -50.04        -0.9685          53.09           69.6        -0.4393          -13.7          21.35          86.75          44.88          85.11          36.81
     1.012              -50.02        -0.9428          53.07          69.59        -0.4469         -13.69          21.38          86.75          44.83          85.09           36.8
     1.058              -50.01        -0.9143          53.05          69.59        -0.4553         -13.69          21.41          86.74          44.78          85.08          36.79
     1.104              -49.99        -0.8826          53.02          69.59        -0.4647         -13.69          21.45          86.73          44.71          85.06          36.77
      1.15              -49.97        -0.8472          52.99          69.58        -0.4751         -13.69          21.49          86.72          44.65          85.03          36.76
     1.196              -49.95        -0.8076          52.96          69.58        -0.4868         -13.69          21.54          86.71          44.57          85.01          36.74
     1.242              -49.92        -0.7631          52.93          69.57        -0.4999         -13.69          21.59           86.7          44.49          84.98          36.72
     1.288              -49.89        -0.7127          52.89          69.57        -0.5148         -13.69          21.64          86.69          44.39          84.95           36.7
     1.334              -49.86        -0.6556          52.85          69.56        -0.5316         -13.69          21.71          86.67          44.28          84.91          36.68
      1.38              -49.82        -0.5903           52.8          69.55        -0.5509         -13.69          21.79          86.66          44.15          84.87          36.65
     1.426              -49.78        -0.5155          52.74          69.54        -0.5729         -13.69          21.87          86.64          44.01          84.82          36.62
